HIERARCHY
ROOT Hips
{
	OFFSET 43.132599 -26.161715 95.880196
	CHANNELS 6 Xposition Yposition Zposition Xrotation Yrotation Zrotation
	JOINT spine
	{
		OFFSET 0.000000 -0.467661 8.132500
		CHANNELS 3 Xrotation Yrotation Zrotation
		JOINT spine1
		{
			OFFSET 0.000000 -0.000002 10.349800
			CHANNELS 3 Xrotation Yrotation Zrotation
			JOINT spine2
			{
				OFFSET 0.000000 -0.000002 9.916992
				CHANNELS 3 Xrotation Yrotation Zrotation
				JOINT Neck
				{
					OFFSET 0.000000 -1.213903 25.461006
					CHANNELS 3 Xrotation Yrotation Zrotation
					JOINT Head
					{
						OFFSET 0.000000 0.000000 7.692444
						CHANNELS 3 Xrotation Yrotation Zrotation
						End Site
						{
							OFFSET 0.000000 6.140625 18.619995
						}
					}
				}
				JOINT RightShoulder
				{
					OFFSET -4.175751 0.581444 10.709602
					CHANNELS 3 Xrotation Yrotation Zrotation
					JOINT RightArm
					{
						OFFSET 0.000000 -0.000002 14.046600
						CHANNELS 3 Xrotation Yrotation Zrotation
						JOINT RightArmRoll
						{
							OFFSET 0.000000 0.000000 7.090973
							CHANNELS 3 Xrotation Yrotation Zrotation
							JOINT RightForeArm
							{
								OFFSET 0.000000 -0.000004 20.653503
								CHANNELS 3 Xrotation Yrotation Zrotation
								JOINT RightForeArmRoll
								{
									OFFSET 0.000000 -0.000002 7.957184
									CHANNELS 3 Xrotation Yrotation Zrotation
									JOINT RightHand
									{
										OFFSET 0.000000 -0.000002 15.968307
										CHANNELS 3 Xrotation Yrotation Zrotation
										End Site
										{
											OFFSET 0.000000 0.000000 0.100006
										}
									}
								}
							}
						}
					}
				}
				JOINT LeftShoulder
				{
					OFFSET 4.175751 0.581444 10.709602
					CHANNELS 3 Xrotation Yrotation Zrotation
					JOINT LeftArm
					{
						OFFSET 0.000000 -0.000002 14.046600
						CHANNELS 3 Xrotation Yrotation Zrotation
						JOINT LeftArmRoll
						{
							OFFSET 0.000000 0.000000 7.090973
							CHANNELS 3 Xrotation Yrotation Zrotation
							JOINT LeftForeArm
							{
								OFFSET 0.000000 -0.000004 20.653503
								CHANNELS 3 Xrotation Yrotation Zrotation
								JOINT LeftForeArmRoll
								{
									OFFSET 0.000000 -0.000002 7.957184
									CHANNELS 3 Xrotation Yrotation Zrotation
									JOINT LeftHand
									{
										OFFSET 0.000000 -0.000002 15.968307
										CHANNELS 3 Xrotation Yrotation Zrotation
										End Site
										{
											OFFSET 0.000000 0.000000 0.100006
										}
									}
								}
							}
						}
					}
				}
			}
		}
	}
	JOINT RightUpLeg
	{
		OFFSET -7.208340 1.108839 -1.321823
		CHANNELS 3 Xrotation Yrotation Zrotation
		JOINT RightUpLegRoll
		{
			OFFSET 0.000000 -0.000004 18.723801
			CHANNELS 3 Xrotation Yrotation Zrotation
			JOINT RightLeg
			{
				OFFSET 0.000000 0.000004 -23.186600
				CHANNELS 3 Xrotation Yrotation Zrotation
				JOINT RightLegRoll
				{
					OFFSET 0.000000 -0.000004 23.262398
					CHANNELS 3 Xrotation Yrotation Zrotation
					JOINT RightFoot
					{
						OFFSET 0.000000 -0.000002 19.362106
						CHANNELS 3 Xrotation Yrotation Zrotation
						JOINT RightToeBase
						{
							OFFSET 0.000000 -0.000004 16.185699
							CHANNELS 3 Xrotation Yrotation Zrotation
							End Site
							{
								OFFSET 0.006859 0.903522 7.838623
							}
						}
					}
				}
			}
		}
	}
	JOINT LeftUpLeg
	{
		OFFSET 7.208340 1.108839 -1.321823
		CHANNELS 3 Xrotation Yrotation Zrotation
		JOINT LeftUpLegRoll
		{
			OFFSET 0.000000 -0.000004 18.723900
			CHANNELS 3 Xrotation Yrotation Zrotation
			JOINT LeftLeg
			{
				OFFSET 0.000000 -0.000004 23.186508
				CHANNELS 3 Xrotation Yrotation Zrotation
				JOINT LeftLegRoll
				{
					OFFSET 0.000000 -0.000004 23.477509
					CHANNELS 3 Xrotation Yrotation Zrotation
					JOINT LeftFoot
					{
						OFFSET 0.000000 -0.000002 19.147003
						CHANNELS 3 Xrotation Yrotation Zrotation
						JOINT LeftToeBase
						{
							OFFSET 0.000000 -0.000004 16.185699
							CHANNELS 3 Xrotation Yrotation Zrotation
							End Site
							{
								OFFSET -0.030746 0.903522 7.838623
							}
						}
					}
				}
			}
		}
	}
}
MOTION
Frames: 5
Frame Time: 0.041667
47.675598 -13.147423 96.216095 -4.884078 -0.117631 2.321138 -0.706850 -0.462213 0.029626 2.589369 -0.926978 0.044105 4.234535 -0.926292 0.055285 12.953122 5.871347 -2.418278 -3.905480 -3.423409 -2.444944 -17.174931 -56.326350 -20.268532 -43.748700 -120.528605 -19.975996 0.000002 0.000010 -0.000008 0.882767 -5.539816 -0.548379 0.000002 0.000003 -2.999990 -5.000194 -7.999319 0.000093 -15.461979 62.049707 18.337316 -46.452636 115.871209 34.888979 0.000001 0.000009 0.000005 0.072141 8.655243 1.072177 0.000006 -0.000016 3.025040 -5.000212 7.998922 -0.000145 -1.139762 -174.531073 3.383259 -179.999991 0.000005 -1.098002 166.812863 -1.945357 -0.680717 -0.000004 -0.000001 0.245969 71.202953 6.760799 2.316430 25.457078 -7.350948 0.000244 -0.122440 174.041020 -0.724638 -0.000005 -0.000004 -1.031649 -12.021100 0.327022 0.632515 -0.000005 -0.000000 -0.138843 71.125123 -6.173800 -3.947781 25.457370 7.355617 -0.000614 
47.657700 -13.141617 96.212074 -4.876577 -0.119230 2.334037 -0.707491 -0.462775 0.029337 2.588090 -0.927915 0.044631 4.233255 -0.927228 0.055816 12.944754 5.887329 -2.419139 -3.893490 -3.439153 -2.445764 -17.173201 -56.317239 -20.266365 -43.747474 -120.545080 -19.978016 0.000002 0.000010 -0.000008 0.866488 -5.539060 -0.548363 0.000002 0.000003 -2.999987 -5.000193 -7.999320 0.000098 -15.440841 62.053361 18.312833 -46.447971 115.866660 34.887052 0.000001 0.000010 0.000004 0.072138 8.658072 1.071279 0.000004 -0.000016 3.025041 -5.000209 7.998921 -0.000145 -1.155642 -174.537110 3.380656 -179.999991 0.000005 -1.098003 166.793916 -1.949104 -0.681276 -0.000003 -0.000001 0.246605 71.214448 6.761682 2.314279 25.457080 -7.350948 0.000245 -0.143684 174.035023 -0.721932 -0.000005 -0.000004 -1.031610 -12.034896 0.322566 0.632599 -0.000005 0.000001 -0.138839 71.124795 -6.172093 -3.952013 25.457370 7.355618 -0.000616 
47.645199 -13.131721 96.207474 -4.868923 -0.120808 2.346869 -0.708177 -0.463368 0.029076 2.586711 -0.928906 0.045219 4.231876 -0.928219 0.056410 12.936295 5.903835 -2.420065 -3.881056 -3.455516 -2.446633 -17.171509 -56.308100 -20.264268 -43.747590 -120.560885 -19.981145 0.000004 0.000011 -0.000007 0.850181 -5.537917 -0.548327 0.000000 0.000004 -2.999990 -5.000194 -7.999319 0.000097 -15.418874 62.057193 18.287382 -46.441472 115.862685 34.883036 0.000002 0.000010 0.000006 0.072142 8.660945 1.070379 0.000005 -0.000017 3.025039 -5.000212 7.998921 -0.000145 -1.171742 -174.542137 3.378085 -179.999991 0.000005 -1.098002 166.774874 -1.952835 -0.682836 -0.000003 -0.000002 0.247235 71.226039 6.762526 2.312116 25.457080 -7.350949 0.000245 -0.165245 174.029026 -0.719118 -0.000005 -0.000005 -1.031570 -12.049092 0.318083 0.632686 -0.000004 0.000000 -0.138851 71.124672 -6.170357 -3.956332 25.457368 7.355618 -0.000616 
47.639500 -13.132517 96.209084 -4.861161 -0.122372 2.359652 -0.708906 -0.463981 0.028836 2.585271 -0.929935 0.045852 4.230427 -0.929248 0.057049 12.927744 5.920680 -2.421034 -3.868325 -3.472320 -2.447536 -17.169852 -56.298859 -20.262197 -43.747689 -120.576704 -19.983861 0.000001 0.000009 -0.000009 0.833857 -5.536508 -0.548280 0.000002 0.000003 -2.999989 -5.000196 -7.999319 0.000096 -15.396257 62.061100 18.261170 -46.436305 115.857931 34.880461 -0.000001 0.000011 0.000004 0.072142 8.663833 1.069473 0.000004 -0.000016 3.025040 -5.000212 7.998922 -0.000146 -1.187998 -174.548175 3.375582 -179.999991 0.000005 -1.098002 166.755845 -1.955608 -0.683176 -0.000004 -0.000001 0.247861 71.237521 6.763368 2.310158 25.457076 -7.350948 0.000245 -0.187035 174.024040 -0.716231 -0.000005 -0.000005 -1.031530 -12.063485 0.313578 0.632774 -0.000005 0.000000 -0.138876 71.124652 -6.168620 -3.960641 25.457370 7.355616 -0.000615 
47.631599 -13.127521 96.212982 -4.853348 -0.123926 2.372418 -0.709651 -0.464607 0.028607 2.583782 -0.930986 0.046509 4.228939 -0.930297 0.057714 12.919102 5.937746 -2.422027 -3.855399 -3.489374 -2.448447 -17.168223 -56.289628 -20.260141 -43.747946 -120.592577 -19.986409 0.000002 0.000009 -0.000009 0.817522 -5.534951 -0.548224 0.000001 0.000004 -2.999988 -5.000193 -7.999319 0.000095 -15.373286 62.065048 18.234561 -46.429474 115.853805 34.876056 0.000001 0.000011 0.000006 0.072141 8.666733 1.068572 0.000005 -0.000016 3.025041 -5.000212 7.998921 -0.000146 -1.204341 -174.554200 3.373105 -179.999991 0.000005 -1.098002 166.736693 -1.959349 -0.683750 -0.000004 -0.000001 0.248485 71.249009 6.764203 2.308300 25.457076 -7.350947 0.000255 -0.208951 174.018043 -0.713293 -0.000005 -0.000004 -1.031490 -12.077980 0.309063 0.632861 -0.000004 0.000001 -0.138907 71.124734 -6.166885 -3.964850 25.457367 7.355619 -0.000616 
